Coordinates
version=1
nRows=11
nColumns=40
inDegrees=yes

Units are S.I. units (second, meters, Newtons, ...)
If the header above contains a line with 'inDegrees', this indicates whether rotational values are in degrees (yes) or radians (no).

endheader
time	pelvis_tilt	pelvis_list	pelvis_rotation	pelvis_tx	pelvis_ty	pelvis_tz	hip_flexion_r	hip_adduction_r	hip_rotation_r	knee_angle_r	knee_angle_r_beta	ankle_angle_r	subtalar_angle_r	mtp_angle_r	hip_flexion_l	hip_adduction_l	hip_rotation_l	knee_angle_l	knee_angle_l_beta	ankle_angle_l	subtalar_angle_l	mtp_angle_l	lumbar_extension	lumbar_bending	lumbar_rotation	arm_flex_r	arm_add_r	arm_rot_r	elbow_flex_r	pro_sup_r	wrist_flex_r	wrist_dev_r	arm_flex_l	arm_add_l	arm_rot_l	elbow_flex_l	pro_sup_l	wrist_flex_l	wrist_dev_l
      2.02500000	     19.32598437	    -11.07748865	     -8.27777082	     -0.30398683	      0.98085173	     -1.03549695	     24.46426230	      7.36656106	     -6.54962558	      4.66893850	      0.08148835	     -2.74352421	      0.00000000	      0.00000000	      4.55669264	    -10.29901820	    -13.40046815	     53.82986453	      0.93950837	     18.15967665	      0.00000000	      0.00000000	    -24.40468196	      3.39463532	     11.75117999	     88.24532417	    -21.93635103	     56.46112162	     33.39279046	     85.79910472	      0.00000000	      0.00000000	     89.58285194	    -24.09995539	     60.71059399	     43.04719068	     86.65237356	      0.00000000	      0.00000000
      2.03000000	     19.42224134	    -11.09918823	     -8.26486757	     -0.30407764	      0.98012568	     -1.03563380	     24.41314728	      7.37723841	     -6.61200391	      4.67889620	      0.08166214	     -2.68232901	      0.00000000	      0.00000000	      4.54525556	    -10.35407750	    -13.43013935	     54.02694788	      0.94294813	     18.27747468	      0.00000000	      0.00000000	    -24.51641301	      3.39930671	     11.74002314	     88.24248157	    -21.88006174	     56.26006784	     33.37104832	     85.80614613	      0.00000000	      0.00000000	     89.59420947	    -24.10441522	     60.66944726	     43.06233702	     86.65754785	      0.00000000	      0.00000000
      2.03500000	     19.41800229	    -11.10687062	     -8.26579222	     -0.30438497	      0.97921281	     -1.03572386	     24.49091605	      7.38662328	     -6.70979831	      4.68807771	      0.08182239	     -2.70368170	      0.00000000	      0.00000000	      4.69967478	    -10.42053902	    -13.44304638	     54.31435349	      0.94796430	     18.36176742	      0.00000000	      0.00000000	    -24.56528910	      3.40563481	     11.73408767	     88.31790580	    -21.85014660	     56.29389422	     33.31142644	     85.83601827	      0.00000000	      0.00000000	     89.60287703	    -24.14061353	     60.55245762	     43.10514537	     86.61238162	      0.00000000	      0.00000000
      2.04000000	     19.41257546	    -11.04510691	     -8.35472733	     -0.30467644	      0.97834148	     -1.03575091	     24.57124261	      7.36596400	     -6.62325638	      4.68796260	      0.08182038	     -2.81144742	      0.00000000	      0.00000000	      4.79607100	    -10.38638691	    -13.51410393	     54.48989689	      0.95102811	     18.46097051	      0.00000000	      0.00000000	    -24.60936295	      3.31066061	     11.75518492	     88.41221712	    -21.86729918	     56.59203441	     33.42562120	     85.16813004	      0.00000000	      0.00000000	     89.61694912	    -24.26204595	     60.64706519	     43.30075492	     86.09097463	      0.00000000	      0.00000000
      2.04500000	     19.57768064	    -11.03948431	     -8.31490246	     -0.30490188	      0.97771971	     -1.03593034	     24.44612359	      7.34301760	     -6.69308245	      4.65729122	      0.08128507	     -2.74464979	      0.00000000	      0.00000000	      4.72223182	    -10.42229947	    -13.59785628	     54.68640356	      0.95445780	     18.50756157	      0.00000000	      0.00000000	    -24.80297341	      3.26762267	     11.75329673	     88.37642326	    -21.79921693	     56.04888246	     33.28502469	     85.87090558	      0.00000000	      0.00000000	     89.61982537	    -24.17140032	     60.37419543	     43.18548927	     86.71416626	      0.00000000	      0.00000000
      2.05000000	     19.58371520	    -11.03001499	     -8.28833128	     -0.30512845	      0.97679954	     -1.03601489	     24.50705509	      7.32880574	     -6.75981264	      4.67122509	      0.08152826	     -2.73189054	      0.00000000	      0.00000000	      4.85009250	    -10.48816161	    -13.63333310	     54.93758512	      0.95884174	     18.59579809	      0.00000000	      0.00000000	    -24.84115965	      3.26220765	     11.73332038	     88.43548864	    -21.78238417	     56.06169426	     33.22327146	     85.76466192	      0.00000000	      0.00000000	     89.62625456	    -24.20134565	     60.27582874	     43.25141396	     86.76350536	      0.00000000	      0.00000000
      2.05500000	     19.62896746	    -11.08194627	     -8.22088810	     -0.30540235	      0.97600881	     -1.03613917	     24.51441416	      7.35533349	     -6.87900102	      4.65665574	      0.08127397	     -2.77868430	      0.00000000	      0.00000000	      4.93523762	    -10.60589634	    -13.60198059	     55.21759292	      0.96372880	     18.74081259	      0.00000000	      0.00000000	    -24.94298003	      3.32349233	     11.65275148	     88.52376688	    -21.69967653	     56.12617133	     33.16547636	     85.81058982	      0.00000000	      0.00000000	     89.63474417	    -24.27119734	     60.18381169	     43.29002930	     86.59107112	      0.00000000	      0.00000000
      2.06000000	     19.60114169	    -11.02982085	     -8.21710016	     -0.30572324	      0.97507176	     -1.03626427	     24.61915194	      7.31089961	     -6.86153449	      4.64482786	      0.08106754	     -2.88887934	      0.00000000	      0.00000000	      5.11471222	    -10.62701206	    -13.66451883	     55.45682842	      0.96790425	     18.80771262	      0.00000000	      0.00000000	    -24.96074040	      3.26568935	     11.58284435	     88.48381612	    -21.62179656	     55.74710978	     33.17894674	     85.64605675	      0.00000000	      0.00000000	     89.64013426	    -24.32205923	     60.13587442	     43.28486803	     86.82897119	      0.00000000	      0.00000000
      2.06500000	     19.70908877	    -10.90530062	     -8.19668355	     -0.30596084	      0.97440219	     -1.03643385	     24.58933311	      7.17581418	     -6.84416718	      4.67210254	      0.08154357	     -2.73291747	      0.00000000	      0.00000000	      5.11068461	    -10.51805996	    -13.70081458	     55.61790277	      0.97071553	     18.76936556	      0.00000000	      0.00000000	    -25.08625317	      3.12074463	     11.52913201	     88.56313516	    -21.59106110	     55.78913292	     33.08055711	     85.86010115	      0.00000000	      0.00000000	     89.65040987	    -24.31467766	     59.94458619	     43.32538806	     86.68809324	      0.00000000	      0.00000000
      2.07000000	     19.78837901	    -10.87318483	     -8.13608479	     -0.30622611	      0.97367069	     -1.03659245	     24.56298318	      7.12720083	     -6.88245333	      4.64724189	      0.08110967	     -2.74975569	      0.00000000	      0.00000000	      5.14865491	    -10.54444399	    -13.73609201	     55.84350734	      0.97465307	     18.88136882	      0.00000000	      0.00000000	    -25.19994938	      3.08476738	     11.48973611	     88.63667562	    -21.61016706	     55.94587492	     33.02350849	     85.79547160	      0.00000000	      0.00000000	     89.66039379	    -24.27321205	     59.85690016	     43.26973766	     86.67765059	      0.00000000	      0.00000000
      2.07500000	     19.78525390	    -10.94212783	     -8.06191574	     -0.30638284	      0.97272194	     -1.03673886	     24.60716599	      7.17819609	     -7.07780840	      4.61988610	      0.08063222	     -2.74084948	      0.00000000	      0.00000000	      5.28562611	    -10.71266199	    -13.74381607	     56.11653989	      0.97941839	     18.98105011	      0.00000000	      0.00000000	    -25.23779592	      3.17703933	     11.42149332	     88.63673440	    -21.55367719	     55.79285954	     32.97253201	     85.61775776	      0.00000000	      0.00000000	     89.66493852	    -24.32067494	     59.72983651	     43.31885738	     86.80483151	      0.00000000	      0.00000000
